<svg xmlns="http://www.w3.org/2000/svg" viewBox="0 0 64 64" role="img" aria-label="Portfolio favicon">
  <defs>
    <linearGradient id="bg" x1="0" y1="0" x2="1" y2="1">
      <stop offset="0%" stop-color="#6366f1" />
      <stop offset="55%" stop-color="#8b5cf6" />
      <stop offset="100%" stop-color="#f59e0b" />
    </linearGradient>
  </defs>
  <rect x="4" y="4" width="56" height="56" rx="14" fill="#0b1020" />
  <rect x="6" y="6" width="52" height="52" rx="12" fill="url(#bg)" opacity="0.22" />
  <path d="M44.3 19.1c-2.4-2.2-5.8-3.5-10.1-3.5-6.8 0-11.5 3.4-11.5 8.8 0 4.2 3.1 6.5 8.9 7.7l4.2.9c3 .6 4.3 1.8 4.3 3.5 0 2.3-2.3 3.9-6.1 3.9-3.9 0-7.2-1.5-9.9-4l-3.4 4.1c3.4 3.2 7.9 5 13.2 5 7.9 0 12.7-3.8 12.7-9.6 0-4.5-2.9-6.9-8.8-8.2l-4.4-1c-2.9-.6-4.1-1.6-4.1-3.1 0-2.2 2.1-3.5 5.4-3.5 3.1 0 5.9 1.1 8 2.8z" fill="#f8fafc"/>
</svg>
